<?xml version="1.0" encoding="UTF-8"?>
<svg xmlns="http://www.w3.org/2000/svg" id="a" width="865.76" height="682.89" viewBox="0 0 865.76 682.89">
  <g>
    <path d="M182.57,374.23h0c1.83,0,3.37-1.37,3.58-3.19l7.4-63.99c.13-1.09-.73-2.05-1.83-2.05h-28.78l2.74,47.99,16.89,21.25Z" fill="#231f20"></path>
    <path d="M182.57,374.73h-.24l-17.14-21.56v-.16s-2.78-48.52-2.78-48.52h29.31c.67,0,1.3,.29,1.75,.78s.65,1.16,.58,1.83l-7.4,63.99c-.24,2.07-1.99,3.64-4.08,3.64Zm-16.4-21.94l16.63,20.93c1.47-.11,2.68-1.25,2.85-2.74l7.4-63.99c.04-.38-.08-.76-.33-1.04-.25-.29-.62-.45-1-.45h-28.25l2.7,47.3Z" fill="#231f20"></path>
  </g>
  <g>
    <rect x="132.09" y="272.09" width="52.1" height="78.84" fill="#fff"></rect>
    <path d="M184.69,351.42h-53.1v-79.84h53.1v79.84Zm-52.1-1h51.1v-77.84h-51.1v77.84Z" fill="#231f20"></path>
  </g>
  <path d="M179.05,283.55h-39.76c-.28,0-.5-.22-.5-.5s.22-.5,.5-.5h39.76c.28,0,.5,.22,.5,.5s-.22,.5-.5,.5Z" fill="#231f20"></path>
  <path d="M179.05,289.19h-39.76c-.28,0-.5-.22-.5-.5s.22-.5,.5-.5h39.76c.28,0,.5,.22,.5,.5s-.22,.5-.5,.5Z" fill="#231f20"></path>
  <path d="M179.05,294.83h-39.76c-.28,0-.5-.22-.5-.5s.22-.5,.5-.5h39.76c.28,0,.5,.22,.5,.5s-.22,.5-.5,.5Z" fill="#231f20"></path>
  <path d="M179.05,300.46h-39.76c-.28,0-.5-.22-.5-.5s.22-.5,.5-.5h39.76c.28,0,.5,.22,.5,.5s-.22,.5-.5,.5Z" fill="#231f20"></path>
  <path d="M179.05,306.1h-39.76c-.28,0-.5-.22-.5-.5s.22-.5,.5-.5h39.76c.28,0,.5,.22,.5,.5s-.22,.5-.5,.5Z" fill="#231f20"></path>
  <path d="M179.05,311.74h-39.76c-.28,0-.5-.22-.5-.5s.22-.5,.5-.5h39.76c.28,0,.5,.22,.5,.5s-.22,.5-.5,.5Z" fill="#231f20"></path>
  <path d="M179.05,317.37h-39.76c-.28,0-.5-.22-.5-.5s.22-.5,.5-.5h39.76c.28,0,.5,.22,.5,.5s-.22,.5-.5,.5Z" fill="#231f20"></path>
  <path d="M179.05,323.01h-39.76c-.28,0-.5-.22-.5-.5s.22-.5,.5-.5h39.76c.28,0,.5,.22,.5,.5s-.22,.5-.5,.5Z" fill="#231f20"></path>
  <path d="M179.05,328.65h-39.76c-.28,0-.5-.22-.5-.5s.22-.5,.5-.5h39.76c.28,0,.5,.22,.5,.5s-.22,.5-.5,.5Z" fill="#231f20"></path>
  <path d="M179.05,334.28h-39.76c-.28,0-.5-.22-.5-.5s.22-.5,.5-.5h39.76c.28,0,.5,.22,.5,.5s-.22,.5-.5,.5Z" fill="#231f20"></path>
  <g>
    <rect x="669.78" y="247.25" width="104.27" height="97.01" rx="5.99" ry="5.99" fill="#231f20"></rect>
    <path d="M768.06,344.77h-92.29c-3.58,0-6.49-2.91-6.49-6.49v-85.03c0-3.58,2.91-6.49,6.49-6.49h92.29c3.58,0,6.49,2.91,6.49,6.49v85.03c0,3.58-2.91,6.49-6.49,6.49Zm-92.29-97.01c-3.03,0-5.49,2.46-5.49,5.49v85.03c0,3.03,2.46,5.49,5.49,5.49h92.29c3.03,0,5.49-2.46,5.49-5.49v-85.03c0-3.03-2.46-5.49-5.49-5.49h-92.29Z" fill="#231f20"></path>
  </g>
  <g>
    <rect x="399.32" y="240.25" width="8.11" height="26.17" fill="#231f20"></rect>
    <path d="M407.93,266.92h-9.11v-27.17h9.11v27.17Zm-8.11-1h7.11v-25.17h-7.11v25.17Z" fill="#231f20"></path>
  </g>
  <g>
    <polygon points="411.02 266.42 420.1 266.42 393.54 297.08 384.85 297.08 411.02 266.42" fill="#231f20"></polygon>
    <path d="M393.76,297.58h-10l27.02-31.66h10.41l-27.43,31.66Zm-7.83-1h7.37l25.7-29.66h-7.76l-25.32,29.66Z" fill="#231f20"></path>
  </g>
  <g>
    <path d="M341.6,134.56c-7.04-4.36-19.84-9.67-35.15-4.06l28.12,18.79,7.03-14.74Z" fill="#231f20"></path>
    <path d="M334.77,150.04l-29.42-19.66,.92-.34c15.83-5.8,29.09,.08,35.59,4.1l.38,.24-7.47,15.66Zm-27.22-19.39l26.81,17.92,6.59-13.81c-6.33-3.83-18.68-9.11-33.4-4.11Z" fill="#231f20"></path>
  </g>
  <g>
    <path d="M455.88,162.86s-1.2-61.2-44.45-69.65c-10.41-2.03-21.19-.28-30.7,4.41-11.86,5.86-27.86,17.88-33.26,41.31l87.48,37.01,20.94-13.08Z" fill="#231f20"></path>
    <path d="M434.99,176.51l-.24-.1-87.87-37.17,.09-.41c5.4-23.4,21.21-35.57,33.53-41.65,9.84-4.86,20.85-6.44,31.02-4.46,17.87,3.49,31.29,16.74,38.82,38.32,5.67,16.24,6.03,31.66,6.03,31.81v.28s-.24,.15-.24,.15l-21.15,13.22Zm-86.94-37.87l86.85,36.75,20.47-12.79c-.17-4.51-3.17-60.91-44.04-68.89-9.95-1.94-20.74-.39-30.38,4.37-12.05,5.95-27.5,17.81-32.9,40.57Z" fill="#231f20"></path>
  </g>
  <g>
    <path d="M458.49,157.74s35.22-7.24,46.52,22.52c3.75,9.88,3.93,20.83,.55,30.84-4.88,14.45-18.63,33.4-57.32,31.77l10.25-85.13Z" fill="#231f20"></path>
    <path d="M452.9,243.47c-1.52,0-3.08-.03-4.68-.1l-.54-.02,10.35-86.02,.35-.07c.35-.07,35.77-6.98,47.09,22.83,3.78,9.96,3.98,21.04,.56,31.18-5.03,14.89-18.36,32.21-53.13,32.21Zm-4.1-1.08c37.23,1.4,51.17-16.31,56.28-31.45,3.35-9.93,3.16-20.76-.54-30.51-10.42-27.43-41.91-22.91-45.6-22.27l-10.14,84.23Z" fill="#231f20"></path>
  </g>
  <g>
    <g>
      <path d="M778.44,576.35H101.09c-.28,0-.5-.22-.5-.5s.22-.5,.5-.5H778.44c.28,0,.5,.22,.5,.5s-.22,.5-.5,.5Z" fill="#231f20"></path>
      <g>
        <polygon points="491.02 572.95 363.53 556.35 371.59 581.03 491.02 572.95" fill="#fff"></polygon>
        <path d="M371.23,581.56l-8.43-25.81,128.28,16.71-.03,.99-119.83,8.11Zm-6.98-24.61l7.69,23.56,114-7.71-121.69-15.85Z" fill="#231f20"></path>
      </g>
      <g>
        <polygon points="366.4 521.39 354.95 530.23 376.1 559.8 389.17 559.28 402.44 555.21 410.75 536.91 396.77 521.39 381.25 516.52 366.4 521.39" fill="#fff"></polygon>
        <path d="M375.85,560.31l-.16-.22-21.43-29.96,11.98-9.22,15.01-4.92,15.8,4.96,.09,.1,14.2,15.77-8.54,18.8-13.61,4.16-13.34,.54Zm-20.21-29.98l20.71,28.96,12.73-.51,12.99-3.98,8.09-17.79-13.67-15.18-15.24-4.78-14.62,4.79-11,8.5Z" fill="#231f20"></path>
      </g>
      <g>
        <path d="M503.28,381.63s-44.29,6.15-57.6,28.88c0,0-24.39,42.14-35.48,65.42,0,0-4.44,7.76-11.64,16.08,0,0-10.53,13.31-10.53,18.85h-2.61c-2.64,0-5.21,.81-7.36,2.33l-11.65,8.2s34.37-3.88,36.04,33.82l37.52-18.2,29.01-30.59,11.64,64.87,142.48,1.66v2.87s29.94,1.57,42.14-17.84c0,0,1.11-2.3,0-3.92,0,0,16.63-41.54,17.19-95.87,0,0,7.21-34.93-8.87-46.02,0,0-8.08-8.87-28.71-15.25l-43.24-15.29s.99-4.94-8.99-14.37l-10-8.04s-54.21,19.76-55.65,21.39c-1.44,1.62-23.68,1.02-23.68,1.02Z" fill="#4169e1"></path>
        <path d="M624.5,576.34c-.88,0-1.39-.02-1.43-.02l-.47-.02v-2.85l-142.4-1.66-11.54-64.3-28.39,29.94-.08,.04-38.21,18.53-.03-.76c-.51-11.54-4.16-20.29-10.85-26.01-10.32-8.82-24.48-7.35-24.63-7.33l-1.94,.22,13.24-9.33c2.25-1.58,4.9-2.42,7.65-2.42h2.14c.55-5.88,10.19-18.13,10.62-18.66,7.1-8.2,11.56-15.94,11.6-16.02,10.95-23,35.24-65,35.48-65.42,13.28-22.68,57.52-29.06,57.96-29.12h.04s.04,0,.04,0c10.71,.29,22.35,.05,23.29-.85,1.45-1.63,46.77-18.21,55.85-21.52l.26-.1,10.22,8.22c8.54,8.07,9.22,12.97,9.2,14.41l42.89,15.17c19.99,6.18,28.17,14.58,28.87,15.34,16.1,11.18,9.33,45.06,9.03,46.5-.52,51.61-15.78,92.26-17.12,95.72,1.02,1.81-.06,4.09-.11,4.19-10.7,17.03-35.03,18.14-41.18,18.14Zm-.9-1.01c3.86,.08,30.15-.01,41.21-17.62h0s.93-2.02,.01-3.37l-.15-.22,.1-.25c.17-.41,16.6-42.09,17.15-95.69,.08-.44,6.97-34.83-8.65-45.6l-.08-.07c-.08-.09-8.25-8.85-28.49-15.11l-43.67-15.45,.08-.42s.73-4.86-8.84-13.91l-9.75-7.84c-21.52,7.85-53.79,19.89-55.19,21.16-1.46,1.65-18.69,1.32-24.01,1.18-1.55,.22-44.34,6.66-57.2,28.63-.24,.42-24.51,42.38-35.46,65.38-.06,.11-4.56,7.93-11.72,16.19-.09,.11-10.41,13.22-10.41,18.52v.5h-3.11c-2.55,0-4.99,.77-7.07,2.24l-10.22,7.2c4.22-.09,15.16,.43,23.61,7.65,6.77,5.78,10.53,14.52,11.17,25.98l36.76-17.83,29.63-31.24,11.74,65.43,142.57,1.66v2.88Z" fill="#231f20"></path>
      </g>
      <g>
        <path d="M526.97,394.15s-.9,29.66,11.85,39.64c0,0,7.21,7.76,8.87,14.41l17.74-17.74s21.07-23.84,22.73-53.78c0,0-6.74-8.43-5.87-28.33l-7.44-2.72h-30.24l-17.65,48.51Z" fill="#fff"></path>
        <path d="M547.42,449.19l-.21-.86c-1.61-6.45-8.68-14.12-8.75-14.2-12.75-9.97-12.02-38.77-11.99-40l.03-.16,17.77-48.84,30.76,.03,7.78,2.84-.02,.37c-.86,19.49,5.69,27.91,5.76,28l.12,.15v.19c-1.66,29.77-22.65,53.84-22.87,54.08l-18.39,18.39Zm-19.96-54.94c-.04,1.7-.42,29.69,11.66,39.15,.34,.36,6.8,7.37,8.81,13.85l17.14-17.14c.19-.21,20.86-23.94,22.57-53.27-.93-1.26-6.6-9.75-5.87-28.14l-7.01-2.56h-29.8l-17.5,48.1Z" fill="#231f20"></path>
      </g>
      <path d="M600.36,435.96c-.07,0-.14-.02-.21-.05l-16.63-7.76c-3.08-1.46-5.89-1.72-8.34-.77-3.92,1.52-5.66,5.65-5.67,5.69-.11,.26-.4,.38-.65,.27-.25-.1-.38-.4-.27-.65,.08-.19,1.91-4.57,6.23-6.24,2.72-1.06,5.8-.79,9.14,.79l15.94,7.44,1.21-53.06c0-.28,.23-.49,.51-.49,.28,0,.49,.24,.49,.51l-1.23,53.83c0,.17-.09,.32-.24,.41-.08,.05-.17,.08-.26,.08Z" fill="#231f20"></path>
      <path d="M623.09,573.45c-.25,0-.47-.19-.5-.45-.03-.31-3.49-30.96-19.2-42.34-.15-.11-.23-.29-.2-.47,.03-.18,.15-.34,.33-.4l18.88-6.83c4.93-1.78,10.45-.75,14.42,2.7,4.02,3.49,7.59,7.29,10.61,11.27,2.12,2.8,4.65,5.04,7.53,6.67,3.45,1.95,8.1,5.31,10.71,10.23,.13,.24,.04,.55-.21,.68-.24,.13-.55,.04-.68-.21-2.5-4.7-6.99-7.94-10.32-9.83-2.99-1.7-5.63-4.03-7.83-6.94-2.98-3.93-6.5-7.67-10.47-11.12-3.69-3.21-8.83-4.17-13.42-2.51l-18.01,6.52c15.43,12.04,18.83,42.17,18.86,42.48,.03,.27-.17,.52-.44,.55-.02,0-.04,0-.05,0Z" fill="#231f20"></path>
      <path d="M613.54,527.2c-.07,0-.13-.01-.2-.04-.25-.11-.37-.4-.26-.66,8.61-19.89,12.25-60.74,12.29-61.15,.55-17.63,5.4-26.45,5.61-26.81,.13-.24,.44-.33,.68-.19,.24,.14,.33,.44,.19,.68-.05,.09-4.94,8.99-5.48,26.38-.04,.44-3.69,41.45-12.37,61.49-.08,.19-.27,.3-.46,.3Z" fill="#231f20"></path>
      <path d="M542.15,545.18s-.09,0-.13-.02c-.27-.07-.42-.35-.35-.61,5.46-20.22,5.53-95.58,5.53-96.34,0-.28,.22-.5,.5-.5s.5,.22,.5,.5c0,.76-.06,76.26-5.56,96.6-.06,.22-.26,.37-.48,.37Z" fill="#231f20"></path>
      <path d="M544.92,450.01s-.03,0-.04,0c-10.7-.92-13.07-5.82-13.16-6.03-.01-.03-.03-.07-.03-.1-.33-1.48-.96-2.5-1.88-3.05-1.27-.75-2.69-.35-2.7-.34-1.68,.3-3.14-.03-4.41-.98-3.55-2.66-4.29-9.26-4.33-9.54-.25-1.51-.8-2.44-1.62-2.73-1.55-.54-3.96,1.21-4.75,1.93-1.88,2.37-3.7,3.6-5.33,3.6-1.33,0-2.02-.84-2.05-.88-.08-.09-.11-.21-.11-.33,.55-14.34,10.95-40.57,11.06-40.83,.1-.26,.39-.38,.65-.28,.26,.1,.38,.39,.28,.65-.1,.26-10.34,26.07-10.98,40.28,.18,.15,.6,.39,1.18,.39,.9-.01,2.42-.59,4.57-3.28,.19-.18,3.37-3.04,5.81-2.2,1.19,.41,1.96,1.6,2.29,3.53,.01,.09,.73,6.48,3.94,8.88,1.05,.79,2.22,1.05,3.57,.81,.02,0,1.78-.52,3.43,.45,1.16,.68,1.95,1.91,2.35,3.64,.24,.44,2.75,4.59,12.32,5.42,.28,.02,.48,.27,.46,.54-.02,.26-.24,.46-.5,.46Z" fill="#231f20"></path>
      <path d="M516.65,422.1c-.28,0-.5-.22-.5-.5,0-10.48,2.76-21.09,2.79-21.2,.07-.27,.35-.43,.61-.36,.27,.07,.43,.34,.36,.61-.03,.1-2.76,10.6-2.76,20.94,0,.28-.22,.5-.5,.5Z" fill="#231f20"></path>
      <path d="M468.97,506.92c-.2,0-.39-.12-.47-.32-6.08-16.02-3.38-33.35-3.35-33.52,1.08-24.48-6.54-42.23-6.62-42.41-.11-.25,0-.55,.26-.66,.25-.11,.55,0,.66,.26,.08,.18,7.8,18.13,6.69,42.91-.03,.23-2.68,17.3,3.29,33.07,.1,.26-.03,.55-.29,.64-.06,.02-.12,.03-.18,.03Z" fill="#231f20"></path>
      <path d="M417.41,535.2c-.2,0-.4-.13-.47-.33-6.48-17.83-28.81-23.47-29.03-23.52-.27-.07-.43-.34-.37-.6,.07-.27,.34-.43,.6-.37,.23,.06,23.07,5.82,29.74,24.15,.09,.26-.04,.55-.3,.64-.06,.02-.11,.03-.17,.03Z" fill="#231f20"></path>
      <g>
        <path d="M354.95,530.23s3.03-.63,9.23,5.57c1.11,1.11,4.44,1.66,9.43,10.53,0,0,4.75,1.95,4.87,9.29v7.18c0,1.5-1.12,2.76-2.61,2.92-3.78,.41-10.41-.46-11.17-11.32l-3.29-2.53-6.45-21.65Z" fill="#fff"></path>
        <path d="M374.47,566.31c-1.95,0-4.29-.45-6.25-2.09-2.31-1.93-3.66-5.14-4-9.54l-3.24-2.5-.05-.15-6.61-22.17,.53-.11c.13-.03,3.36-.61,9.68,5.71,.19,.19,.51,.39,.91,.64,1.6,1,4.56,2.87,8.52,9.86,.89,.44,4.9,2.78,5.01,9.67v7.19c0,1.76-1.31,3.23-3.06,3.41-.45,.05-.94,.08-1.45,.08Zm-12.63-14.72l3.34,2.57,.02,.22c.3,4.23,1.53,7.28,3.66,9.07,2.22,1.86,5.01,2,6.96,1.79,1.23-.13,2.16-1.17,2.16-2.42v-7.18c-.11-6.88-4.38-8.75-4.56-8.83l-.16-.07-.09-.15c-3.87-6.88-6.73-8.68-8.26-9.64-.45-.28-.81-.51-1.08-.78-4.35-4.35-7.08-5.24-8.2-5.4l6.21,20.83Z" fill="#231f20"></path>
      </g>
      <g>
        <path d="M371.59,581.03l-54.07-165.61c-1.32-4.04-5.23-6.66-9.47-6.34l-143.13,10.82c-2.03,.15-3.38,2.18-2.73,4.12l49.42,142.81c1.82,5.27,6.54,9.01,12.09,9.57l142.69,14.48,124.62-9.86v-8.08l-119.44,8.08Z" fill="#212f3d"></path>
        <path d="M366.44,591.39l-142.78-14.48c-5.72-.58-10.63-4.47-12.51-9.9l-49.42-142.81c-.36-1.07-.21-2.22,.41-3.17,.62-.94,1.63-1.53,2.75-1.61l143.13-10.82c4.51-.34,8.58,2.41,9.98,6.68l53.95,165.24,119.58-8.09v9.08l-125.08,9.9Zm-57.68-181.83c-.22,0-.44,0-.67,.03l-143.13,10.82c-.82,.06-1.54,.49-1.99,1.17s-.56,1.52-.3,2.29l49.42,142.81c1.75,5.07,6.33,8.69,11.67,9.24l142.69,14.48,124.07-9.82v-7.08l-119.29,8.07-.12-.37-54.07-165.61c-1.18-3.62-4.53-6.02-8.29-6.02Z" fill="#231f20"></path>
      </g>
      <path d="M361.41,552.38c-.08,0-.16-.02-.24-.06-.24-.13-.33-.43-.2-.68l3.87-7.21c.13-.24,.44-.33,.68-.2,.24,.13,.33,.43,.2,.68l-3.87,7.21c-.09,.17-.26,.26-.44,.26Z" fill="#231f20"></path>
      <g>
        <rect x="493.64" y="281.05" width="75.4" height="113.1" rx="37.7" ry="37.7" fill="#fff"></rect>
        <path d="M531.34,394.65c-21.06,0-38.2-17.14-38.2-38.2v-37.7c0-21.06,17.14-38.2,38.2-38.2s38.2,17.14,38.2,38.2v37.7c0,21.06-17.14,38.2-38.2,38.2Zm0-113.1c-20.51,0-37.2,16.69-37.2,37.2v37.7c0,20.51,16.69,37.2,37.2,37.2s37.2-16.69,37.2-37.2v-37.7c0-20.51-16.69-37.2-37.2-37.2Z" fill="#231f20"></path>
      </g>
      <g>
        <path d="M493.68,317.07s-6.41-3.59-8.63-15.78c0,0-2.77-8.32,1.66-14.97l6.93-7.1s-4.7-.42-4.7-2.21c0,0,4.98,.99,14.96-5.66l14.41-11.64s6.1-4.99,19.4-3.88c0,0-4.99-.55-8.32-3.33,0,0,16.08,4.44,28.83,4.44,0,0,32.91-.55,34.19,24.12,0,0,11.62,23.79-4.91,45.02l-20.45,11.25s-10.5-1.11-13.83-12.75c0,0-15.52-.67-21.9-13.36,0,0-8.04-14.36-21.9-9.37,0,0-12.67-3.36-15.76,15.23Z" fill="#fff"></path>
        <path d="M567.17,337.84l-.16-.02c-.11-.01-10.67-1.26-14.16-12.78-2.4-.21-16.08-1.89-21.96-13.61-.31-.55-7.98-13.9-21.28-9.12l-.15,.05-.15-.04s-4.15-1.04-8.1,1.52c-3.59,2.33-5.96,6.8-7.04,13.31l-.12,.7-.62-.35c-.27-.15-6.65-3.84-8.88-16.13-.1-.28-2.78-8.56,1.74-15.34l6.29-6.45c-1.56-.25-4.14-.92-4.15-2.57v-.61s.6,.12,.6,.12c.04,0,4.96,.83,14.59-5.59l14.38-11.62c.22-.18,4.97-3.96,15.13-4.15-1.35-.52-2.8-1.25-4.05-2.29l-1.78-1.48,2.23,.62c.16,.04,16.16,4.42,28.7,4.42,.32,0,33.31-.28,34.69,24.49,.78,1.68,11,24.9-5.01,45.45l-.15,.13-20.58,11.33Zm-52.01-37.54c10.49,0,16.54,10.54,16.61,10.67,6.18,12.31,21.33,13.1,21.48,13.11l.36,.02,.1,.35c3.01,10.55,11.93,12.19,13.25,12.37l20.21-11.12c16.05-20.71,4.91-44.18,4.79-44.41l-.05-.19c-1.25-23.91-33.38-23.64-33.69-23.64-9.32,0-20.51-2.38-25.84-3.66,2.67,1.24,5.34,1.55,5.38,1.56l-.1,1c-12.92-1.08-18.99,3.72-19.05,3.77l-14.42,11.64c-7.75,5.17-12.54,5.82-14.45,5.83,.74,.61,2.58,1.03,3.92,1.15l1.05,.09-7.67,7.85c-4.19,6.3-1.57,14.38-1.55,14.46,1.76,9.65,6.19,13.85,7.8,15.09,1.19-6.39,3.66-10.83,7.36-13.22,3.93-2.54,7.89-1.86,8.73-1.67,2.04-.72,3.96-1.03,5.75-1.03Z" fill="#231f20"></path>
      </g>
      <g>
        <ellipse cx="578.26" cy="337.32" rx="14.76" ry="10.48" transform="translate(-3 669.45) rotate(-60)" fill="#fff"></ellipse>
        <path d="M574.88,351.65c-1.52,0-2.96-.37-4.24-1.11-2.57-1.48-4.17-4.27-4.5-7.83-.33-3.51,.6-7.37,2.62-10.87,4.21-7.28,11.89-10.75,17.14-7.72,2.57,1.48,4.17,4.27,4.5,7.83,.33,3.51-.6,7.37-2.62,10.87h0c-2.02,3.5-4.9,6.24-8.1,7.71-1.64,.75-3.26,1.12-4.79,1.12Zm6.77-27.64c-4.23,0-9.04,3.15-12.03,8.33-1.92,3.32-2.8,6.97-2.49,10.27,.3,3.24,1.73,5.75,4.01,7.06,2.28,1.32,5.17,1.29,8.12-.06,3.01-1.38,5.73-3.97,7.65-7.3h0c1.92-3.32,2.8-6.97,2.49-10.27-.3-3.24-1.73-5.75-4.01-7.06-1.14-.66-2.41-.97-3.74-.97Z" fill="#231f20"></path>
      </g>
      <g>
        <path d="M472.48,547.77s9.23,6.33,28.64,3c0,0,16.63-3.88,36.59-4.44,0,0,23.84-3.33,40.47-8.32,0,0,18.3-8.32,25.5-7.76,0,0,15.52,8.5,19.4,45.56,0,0-21.62,3.23-50.45,1.57l-82.8,.48s-8.94,7.13-32.37,0l-11.23-3.25s-6.1-3.33-9.98-7.21c0,0-8.87-6.1-17.19,2.77,0,0-9.11,10.23-12.32,5.67,0,0-2.1-2.9,2.89-10.66,0,0-3.33,0-8.32,5.54,0,0-9.98,8.32-11.09,.55,0,0-6.65,2.77-8.87-1.66,0,0-1.66-3.33,7.76-12.2,0,0,13.86-18.85,31.6-17.19,0,0,9.43-17.19,27.72-4.44l24.03,11.97Z" fill="#fff"></path>
        <path d="M476.34,581.55c-4.85,0-11.11-.81-19.02-3.21l-11.33-3.29c-.25-.14-6.21-3.41-10.09-7.29-.28-.18-8.55-5.68-16.47,2.76-.25,.29-6.5,7.22-10.65,6.99-1.02-.06-1.84-.52-2.44-1.38-.09-.12-2.06-2.99,2.26-10.21-1.31,.43-3.76,1.66-6.9,5.15-.3,.26-6.21,5.13-9.67,3.8-1.11-.43-1.84-1.4-2.17-2.9-2.61,.91-7.16,1.44-8.93-2.12-.19-.37-1.56-3.92,7.87-12.78,.08-.12,13.99-18.77,31.67-17.35,.83-1.37,4.64-7.1,11.5-8.71,5.21-1.22,10.85,.26,16.78,4.39l24.03,11.97c.09,.06,9.33,6.17,28.27,2.92,.14-.03,16.88-3.89,36.66-4.44,.18-.03,23.94-3.37,40.34-8.3,.69-.32,18.46-8.34,25.69-7.78l.2,.06c.64,.35,15.8,9.05,19.66,45.94l.05,.48-.47,.07c-.22,.03-22,3.22-50.55,1.57l-82.61,.48c-.82,.59-4.96,3.19-13.67,3.19Zm-29.91-7.4l11.18,3.23c22.85,6.95,31.83,.16,31.92,.09l.13-.11h.17s82.8-.48,82.8-.48c26.14,1.51,46.58-1.05,49.91-1.5-3.73-34.46-17.76-43.87-19.01-44.64-7.1-.43-24.96,7.64-25.14,7.73-16.54,4.97-40.37,8.32-40.61,8.36-19.74,.55-36.38,4.39-36.55,4.43-19.05,3.27-28.31-2.59-29-3.05l-24-11.96c-5.74-4-11.12-5.42-16.03-4.27-7.21,1.68-10.99,8.43-11.03,8.5l-.16,.29-.33-.03c-17.25-1.62-31.01,16.8-31.15,16.99-8.94,8.42-7.72,11.66-7.71,11.69,1.97,3.95,8.16,1.44,8.22,1.41l.6-.25,.09,.64c.21,1.46,.76,2.37,1.65,2.71,2.41,.93,7.04-2.27,8.62-3.58,5.03-5.59,8.49-5.66,8.64-5.66h.92l-.5,.77c-4.68,7.28-2.92,10.07-2.9,10.1,.42,.6,.97,.91,1.68,.95,3.69,.23,9.79-6.6,9.85-6.67,8.52-9.09,17.75-2.92,17.84-2.85,3.67,3.66,9.32,6.84,9.89,7.15Z" fill="#231f20"></path>
      </g>
      <path d="M420.73,540.74c-.26,0-.48-.2-.5-.47-.02-.28,.19-.51,.47-.53l19.23-1.15c.3-.02,.51,.19,.53,.47,.02,.28-.19,.51-.47,.53l-19.23,1.15s-.02,0-.03,0Z" fill="#231f20"></path>
      <path d="M390.24,571.79c-.09,0-.19-.03-.27-.08-.23-.15-.3-.46-.15-.69,.62-.95,15.3-23.31,28.96-24.25h19.1c.28,0,.5,.22,.5,.5s-.22,.5-.5,.5h-19.07c-13.13,.9-28,23.56-28.15,23.79-.1,.15-.26,.23-.42,.23Z" fill="#231f20"></path>
      <path d="M409.64,565.69c-.14,0-.29-.06-.38-.18-.18-.21-.15-.53,.07-.7l9.54-7.93c2.62-2.18,6.07-3.23,9.45-2.9l11.69,1.16c.28,.03,.48,.27,.45,.55-.03,.27-.28,.47-.55,.45l-11.69-1.16c-3.12-.31-6.3,.66-8.71,2.67l-9.54,7.93c-.09,.08-.21,.12-.32,.12Z" fill="#231f20"></path>
    </g>
    <g>
      <path d="M502.65,363.47c-.12,0-.23-.04-.33-.12-4.69-4.03-1.81-9.5-1.78-9.56,3.22-4.31,3.27-10.79,3.27-10.85,0-.28,.22-.5,.5-.5h0c.28,0,.5,.22,.5,.5s-.04,6.87-3.43,11.39c-.07,.13-2.48,4.76,1.59,8.26,.21,.18,.23,.5,.05,.71-.1,.12-.24,.17-.38,.17Z" fill="#231f20"></path>
      <path d="M534.8,335.13c-.12,0-.25-.04-.34-.13-7.93-7.4-17.83-1.31-18.24-1.05-.23,.15-.54,.08-.69-.16s-.08-.54,.16-.69c.11-.07,10.96-6.77,19.46,1.17,.2,.19,.21,.5,.02,.71-.1,.11-.23,.16-.37,.16Z" fill="#231f20"></path>
      <path d="M500.13,331.37c-.18,0-.35-.1-.44-.27-1.79-3.43-6.93-3.18-6.99-3.18-.27,.01-.51-.19-.53-.47-.02-.28,.19-.51,.47-.53,.24-.02,5.84-.29,7.93,3.71,.13,.24,.03,.55-.21,.67-.07,.04-.15,.06-.23,.06Z" fill="#231f20"></path>
      <g>
        <ellipse cx="525.1" cy="346.55" rx="2.49" ry="3.6" fill="#231f20"></ellipse>
        <path d="M525.1,350.65c-1.68,0-3-1.8-3-4.1s1.32-4.1,3-4.1,3,1.8,3,4.1-1.32,4.1-3,4.1Zm0-7.21c-1.08,0-2,1.42-2,3.1s.91,3.1,2,3.1,2-1.42,2-3.1-.91-3.1-2-3.1Z" fill="#231f20"></path>
      </g>
      <g>
        <ellipse cx="497.38" cy="342.12" rx="2.49" ry="3.6" fill="#231f20"></ellipse>
        <path d="M497.38,346.22c-1.68,0-3-1.8-3-4.1s1.32-4.1,3-4.1,2.99,1.8,2.99,4.1-1.32,4.1-2.99,4.1Zm0-7.21c-1.08,0-2,1.42-2,3.1s.91,3.1,2,3.1,1.99-1.42,1.99-3.1-.91-3.1-1.99-3.1Z" fill="#231f20"></path>
      </g>
      <path d="M514.95,379.18c-6.29,0-10.87-3.35-10.94-3.4-.22-.17-.27-.48-.1-.7,.17-.22,.48-.27,.7-.1,.4,.3,9.83,7.18,20.21-.01,.22-.16,.54-.1,.7,.13,.16,.23,.1,.54-.13,.7-3.67,2.54-7.27,3.39-10.44,3.39Z" fill="#231f20"></path>
    </g>
    <path d="M575.55,342.62c-.12,0-.24-.04-.33-.13-.21-.18-.22-.5-.04-.71l6.69-7.48c.18-.21,.5-.22,.71-.04,.21,.18,.22,.5,.04,.71l-6.69,7.48c-.1,.11-.24,.17-.37,.17Z" fill="#231f20"></path>
    <path d="M509.44,302.34s-.02,0-.03,0c-.28-.01-.49-.25-.47-.53,.01-.27,.4-6.62,5.24-10.94,3.16-2.83,7.46-4.1,12.81-3.77,.28,.02,.49,.25,.47,.53-.02,.27-.24,.48-.53,.47-5.06-.3-9.12,.88-12.07,3.51-4.53,4.04-4.91,10.19-4.91,10.25-.01,.27-.23,.47-.5,.47Z" fill="#231f20"></path>
    <path d="M553.24,325.07c-.09,0-.19-.03-.27-.08-.23-.15-.3-.46-.15-.69,.12-.19,12.58-18.84,29.67-9.12,.24,.14,.32,.44,.19,.68-.14,.24-.44,.32-.68,.19-16.27-9.25-27.85,8.06-28.33,8.8-.1,.15-.26,.23-.42,.23Z" fill="#231f20"></path>
  </g>
  <g>
    <path d="M481.81,170.99c-7.41-10.26-20.5-19.03-42.37-8.5,0,0-1.2-61.2-44.45-69.65-10.41-2.03-21.19-.28-30.7,4.41-11.86,5.86-27.86,17.88-33.26,41.31,0,0-17.57-17.03-41.02-8.43-8.59,3.15-15.75,9.24-20.73,16.92-2.41,3.72-5,8.44-7.03,13.95,0,0-39.63,4.49-36.64,47.1,0,0,.66,10.63,10.08,20.94,8.18,8.95,19.91,13.83,32.03,13.83h102.19v23.16h-12.03l26.98,31.05,26.17-30.66h-11.7v-23.55h45.54c9.88,0,19.59-2.96,27.56-8.79,6.88-5.03,13.54-12.84,16.49-24.87,3.23-13.17,.83-27.23-7.11-38.22Z" fill="#212f3d"></path>
    <path d="M384.85,297.84l-28.08-32.32h12.62v-22.16h-101.69c-12.46,0-24.27-5.1-32.4-14-9.43-10.31-10.18-20.8-10.21-21.24-2.85-40.6,33.04-47.04,36.77-47.59,1.76-4.71,4.11-9.34,6.98-13.77,5.25-8.09,12.5-14.01,20.98-17.11,20.99-7.69,37.5,5.05,40.9,7.97,5.58-22.87,21.17-34.82,33.34-40.83,9.84-4.86,20.85-6.44,31.02-4.46,17.87,3.49,31.29,16.74,38.82,38.32,4.95,14.18,5.85,27.73,6,31.05,22.11-10.33,35.2-.85,42.31,8.98h0c7.91,10.95,10.53,25.03,7.19,38.63-2.57,10.48-8.18,18.94-16.68,25.16-7.83,5.73-17.72,8.88-27.85,8.88h-45.04v22.55h12.28l-27.25,31.92Zm-25.89-31.32l25.88,29.78,25.09-29.39h-11.11v-24.55h46.04c9.92,0,19.6-3.09,27.26-8.69,8.3-6.07,13.79-14.35,16.3-24.59,3.27-13.31,.71-27.09-7.03-37.81-6.96-9.63-19.85-18.89-41.75-8.34l-.7,.34-.02-.78c-.01-.61-1.69-60.9-44.05-69.17-9.95-1.94-20.74-.39-30.38,4.37-12.12,5.99-27.69,17.96-33,40.98l-.2,.86-.64-.62c-.17-.17-17.62-16.71-40.5-8.32-8.27,3.03-15.36,8.81-20.49,16.72-2.89,4.45-5.24,9.11-6.98,13.85l-.11,.29-.31,.03c-.39,.04-39.12,4.94-36.19,46.57,0,.11,.77,10.59,9.95,20.63,7.94,8.69,19.48,13.67,31.67,13.67h102.69v24.16h-11.43Z" fill="#231f20"></path>
  </g>
  <g>
    <rect x="665.25" y="247.25" width="104.27" height="97.01" rx="5.99" ry="5.99" fill="#212f3d"></rect>
    <path d="M763.52,344.77h-92.29c-3.58,0-6.49-2.91-6.49-6.49v-85.03c0-3.58,2.91-6.49,6.49-6.49h92.29c3.58,0,6.49,2.91,6.49,6.49v85.03c0,3.58-2.91,6.49-6.49,6.49Zm-92.29-97.01c-3.03,0-5.49,2.46-5.49,5.49v85.03c0,3.03,2.46,5.49,5.49,5.49h92.29c3.03,0,5.49-2.46,5.49-5.49v-85.03c0-3.03-2.46-5.49-5.49-5.49h-92.29Z" fill="#231f20"></path>
  </g>
  <g>
    <polygon points="672.41 344.27 706.05 280.8 725.09 323.41 740.5 299.84 763.52 344.27 672.41 344.27" fill="#4169e1"></polygon>
    <path d="M764.35,344.77h-92.77l34.51-65.11,19.08,42.71,15.38-23.52,23.8,45.92Zm-91.11-1h89.46l-22.25-42.94-15.45,23.62-19-42.51-32.77,61.83Z" fill="#231f20"></path>
  </g>
  <g>
    <circle cx="727.35" cy="270.37" r="6.8" fill="#4169e1"></circle>
    <path d="M727.35,277.67c-4.03,0-7.3-3.27-7.3-7.3s3.28-7.3,7.3-7.3,7.3,3.27,7.3,7.3-3.27,7.3-7.3,7.3Zm0-13.6c-3.47,0-6.3,2.83-6.3,6.3s2.83,6.3,6.3,6.3,6.3-2.83,6.3-6.3-2.83-6.3-6.3-6.3Z" fill="#231f20"></path>
  </g>
  <g>
    <polygon points="175.25 258.49 175.25 340.98 112.21 340.98 112.21 250.83 167.85 250.83 175.25 258.49" fill="#fff"></polygon>
    <path d="M175.75,341.48H111.71v-91.15h56.35l7.69,7.95v83.19Zm-63.04-1h62.04v-81.79l-7.11-7.36h-54.93v89.15Z" fill="#231f20"></path>
  </g>
  <g>
    <path d="M167.85,250.91v7.32l7.21,.14c.08,0,.12-.1,.07-.15l-7.22-7.33-.05,.02Z" fill="silver"></path>
    <path d="M175.06,258.87h-.01l-7.7-.15v-8.15l.31-.13,.19,.46-.17-.47,.31-.13,.27,.23,7.22,7.33c.17,.17,.22,.43,.12,.65-.09,.22-.31,.36-.54,.36Zm-6.71-1.13l5.71,.11-5.71-5.8v5.69Z" fill="#231f20"></path>
  </g>
  <path d="M157.46,280.44c-.83,0-1.5-.67-1.5-1.5v-6.51c0-6.92-5.63-12.55-12.55-12.55s-12.55,5.63-12.55,12.55v6.51c0,.83-.67,1.5-1.5,1.5s-1.5-.67-1.5-1.5v-6.51c0-8.58,6.98-15.55,15.55-15.55s15.55,6.98,15.55,15.55v6.51c0,.83-.67,1.5-1.5,1.5Z" fill="#231f20"></path>
  <g>
    <path d="M124.55,278.94v39.76h38.39v-39.76h-38.39Zm20.91,14.61v7.33h-3.43v-7.33c-1.02-.59-1.71-1.69-1.71-2.95,0-1.89,1.53-3.43,3.43-3.43s3.43,1.53,3.43,3.43c0,1.27-.69,2.36-1.71,2.95Z" fill="#4169e1"></path>
    <path d="M163.44,319.2h-39.39v-40.76h39.39v40.76Zm-38.39-1h37.39v-38.76h-37.39v38.76Zm20.91-16.82h-4.43v-7.56c-1.06-.73-1.71-1.94-1.71-3.23,0-2.17,1.76-3.93,3.93-3.93s3.93,1.76,3.93,3.93c0,1.29-.65,2.5-1.71,3.23v7.56Zm-3.43-1h2.43v-7.12l.25-.14c.92-.53,1.47-1.48,1.47-2.52,0-1.61-1.31-2.93-2.93-2.93s-2.93,1.31-2.93,2.93c0,1.04,.55,1.99,1.46,2.52l.25,.14v7.12Z" fill="#231f20"></path>
  </g>
  <g>
    <polygon points="299.61 220.81 286.9 220.81 314.94 188.4 341.6 220.81 329.7 220.81 329.7 252.21 299.39 252.21 299.61 220.81" fill="#e6e7e8"></polygon>
    <path d="M330.2,252.71h-31.31l.22-31.4h-13.3l29.14-33.69,27.71,33.69h-12.46v31.4Zm-30.3-1h29.3v-31.4h11.34l-25.61-31.14-26.93,31.14h12.12l-.22,31.4Z" fill="#231f20"></path>
  </g>
  <g>
    <polygon points="341.6 220.81 341.6 242.87 356.44 242.87 356.44 252.21 329.7 252.21 329.7 220.81 341.6 220.81" fill="#231f20"></polygon>
    <path d="M356.94,252.71h-27.74v-32.4h12.9v22.06h14.84v10.35Zm-26.74-1h25.74v-8.35h-14.84v-22.06h-10.9v30.4Z" fill="#231f20"></path>
  </g>
  <g>
    <polygon points="314.94 188.4 326.85 188.4 354.19 220.81 341.6 220.81 314.94 188.4" fill="#231f20"></polygon>
    <path d="M355.27,221.31h-13.91l-.15-.18-27.33-33.23h13.2l.15,.18,28.04,33.23Zm-13.44-1h11.28l-26.5-31.41h-10.61l25.84,31.41Z" fill="#231f20"></path>
  </g>
  <g>
    <path d="M122.49,306.1l-4.12-5.66c-.43-.59-1.11-.93-1.83-.93h-22.43c-4.27,0-7.49,3.9-6.66,8.1l12.8,65.1c.17,.89,.95,1.53,1.86,1.53h80.46c1.21,0,2.1-1.11,1.85-2.29l-13.56-63.76c-.22-1.06-1.17-1.81-2.25-1.79l-44.27,.64c-.74,.01-1.43-.34-1.86-.93Z" fill="#212f3d"></path>
    <path d="M182.57,374.73H102.12c-1.14,0-2.13-.81-2.35-1.93l-12.8-65.1c-.42-2.15,.13-4.35,1.52-6.04s3.44-2.66,5.63-2.66h22.43c.88,0,1.72,.43,2.24,1.14l4.12,5.66c.33,.46,.87,.73,1.43,.73h.02l44.27-.64h.04c1.3,0,2.43,.92,2.7,2.19l13.56,63.76c.15,.71-.03,1.44-.48,2.01-.46,.56-1.13,.89-1.86,.89Zm-88.46-74.72c-1.89,0-3.66,.84-4.86,2.29s-1.68,3.36-1.31,5.21l12.8,65.09c.13,.65,.7,1.13,1.37,1.13h80.46c.42,0,.82-.19,1.08-.52,.27-.33,.37-.75,.28-1.17l-13.56-63.76c-.17-.82-.96-1.4-1.75-1.4l-44.27,.64c-.87,0-1.75-.41-2.28-1.14h0s-4.12-5.66-4.12-5.66c-.33-.46-.86-.73-1.43-.73h-22.43Z" fill="#231f20"></path>
  </g>
</svg>
