<?xml version="1.0" encoding="UTF-8"?>
<svg xmlns="http://www.w3.org/2000/svg" id="a" width="865.76" height="682.89" viewBox="0 0 865.76 682.89">
  <rect x="540.5" y="570.79" width="45.94" height="23.92" fill="#fff" stroke="#002346" stroke-miterlimit="10"></rect>
  <g>
    <line x1="548.82" y1="576.78" x2="586.4" y2="576.78" fill="#fff" stroke="#002346" stroke-miterlimit="10"></line>
    <line x1="548.82" y1="582.75" x2="586.4" y2="582.75" fill="#fff" stroke="#002346" stroke-miterlimit="10"></line>
    <line x1="548.82" y1="588.72" x2="586.4" y2="588.72" fill="#fff" stroke="#002346" stroke-miterlimit="10"></line>
  </g>
  <g>
    <path d="M293.49,179.6l-.1-14.21c0,.24,.05,.48,.13,.71,.1,.25,.23,.49,.4,.71,1.29,1.67,5.03,2.79,11.12,3.34l.09,14.2c-6.08-.55-9.81-1.66-11.11-3.34-.18-.21-.32-.44-.41-.69-.08-.23-.12-.48-.12-.73Z" fill="#4169e1" stroke="#002346" stroke-miterlimit="10"></path>
    <path d="M293.44,176.83c-1.48-1.6-5.37-2.58-11.17-2.95l-.09-14.2c6.09,.38,9.7,1.44,11,3.16,.16,.21,.29,.45,.38,.7,.11,.26,.17,.53,.18,.81l-.1,12.42c0,.1-.13,.16-.2,.08Z" fill="#4169e1" stroke="#002346" stroke-miterlimit="10"></path>
    <line x1="282.1" y1="157.37" x2="282.1" y2="269.29" fill="#e6e7e8" stroke="#002346" stroke-linecap="round" stroke-linejoin="round"></line>
  </g>
  <g>
    <path d="M514.73,89.75l-.1-14.21c0,.24,.05,.48,.13,.71,.1,.25,.23,.49,.4,.71,1.29,1.67,5.03,2.79,11.12,3.34l.09,14.2c-6.08-.55-9.81-1.66-11.11-3.34-.18-.21-.32-.44-.41-.69-.08-.23-.12-.48-.12-.73Z" fill="#4169e1" stroke="#002346" stroke-miterlimit="10"></path>
    <path d="M514.68,86.98c-1.48-1.6-5.37-2.58-11.17-2.95l-.09-14.2c6.09,.38,9.7,1.44,11,3.16,.16,.21,.29,.45,.38,.7,.11,.26,.17,.53,.18,.81l-.1,12.42c0,.1-.13,.16-.2,.08Z" fill="#4169e1" stroke="#002346" stroke-miterlimit="10"></path>
    <line x1="503.35" y1="67.52" x2="503.35" y2="179.44" fill="#e6e7e8" stroke="#002346" stroke-linecap="round" stroke-linejoin="round"></line>
  </g>
  <path d="M758.14,275.58H232.73s21.08-32.43,45.41-43.78c0,0,38.11-18.65,70.54-62.43l26.12-29.03c.84-.92,2.01-1.38,3.16-1.33,1.09,.05,2.12,.52,2.9,1.39l37.54,43.56s22.7-12.97,30.81-27.57c0,0,16.22-25.95,29.19-35.68,0,0,8.11-6.49,16.22-17.84,0,0,3.62-6.65,8.66-7.41,2.69-.39,5.76,.88,8.9,5.71,2.03,3.08,4.15,6.08,6.6,8.85,7.02,7.95,21.03,22.65,35.84,31.77,0,0,17.84,14.59,29.19,29.19,0,0,9.96,12.79,27.19,18.42,1.15,.37,2.35,.45,3.52,.26,1.3-.21,2.55-.76,3.62-1.62,2.48-1.99,5.97-5.34,9.45-10.57l16.49-16.49c1.75-1.75,4.56-1.95,6.52-.41,6.26,4.91,20.63,17.77,41.85,46.09,0,0,2.94,4.9,8.82,9.37,2.48,1.88,5.29,3.28,8.19,4.38,3.68,1.41,10.98,5.06,17.5,13.52,2.34,3.03,4.15,6.44,5.64,9.97,2.01,4.75,6.47,13.77,13.36,19.51l12.16,12.16Z" fill="#e6e7e8" stroke="#002346" stroke-miterlimit="10"></path>
  <path d="M614.98,190.56s-9.03,10.64-19.38,21.19c-8.22,8.37-17.37,15.76-27.23,22.1-9.19,5.92-24.44,16.65-30.03,26.21-2.29,3.92-5.12,7.51-8.77,10.22-2.98,2.22-6.7,4.25-10.65,4.8l-.81,.5h-15.32c1.22-5.84,3.23-13.04,6.44-18.65,0,0,4.86-8.11-1.62-17.84,0,0-6.49-8.11,0-12.97,0,0,9.26-15.88,8.66-29.7-.08-1.85-2.35-2.71-3.67-1.41-4.47,4.39-12.43,12.89-14.72,19.76,0,0-3.24,8.11-14.59,12.97,0,0-9.54,5.45-12.38,13.85-.92,2.73-2.16,5.34-4.03,7.53-2.03,2.37-5.06,5.09-9.35,7.14-2.15,1.03-4.29-1.45-2.98-3.45,5.56-8.48,16.74-24.93,28.87-39.52,.4-.48-.08-1.17-.67-.96-2.09,.76-5.26,1.83-7.57,2.25-.59,.11-.99-.58-.6-1.04,2.76-3.22,10.77-12.21,19.36-18.59,3.96-2.94,6.3-7.55,6.39-12.48,.08-4.39,.96-10.19,4.05-16.37,0,0,.99-5.95,4.53-13.98,1.68-3.82,.65-8.33-2.59-10.95-3.52-2.85-6.92-7.14-5.18-12.36,0,0,1.02-2.04,2.25-5.3,.51-1.35-.49-2.8-1.93-2.8h0c-1.59,0-2.58-1.71-1.79-3.09h0c3.08-5.38,4.47-11.56,3.99-17.75l-.34-4.41c2.69-.39,5.76,.88,8.91,5.7,2.02,3.09,4.15,6.09,6.6,8.86,7.03,7.95,21.03,22.66,35.84,31.77,0,0,17.84,14.59,29.19,29.19,0,0,9.96,12.79,27.19,18.42,1.15,.37,2.35,.45,3.52,.26,.29,.58,.45,.89,.45,.89Z" fill="#fff" stroke="#002346" stroke-miterlimit="10"></path>
  <path d="M758.14,275.58h-140.92c7.72-6.37,7.18-9.36,8.76-25.14,.05-.44,.1-.86,.15-1.28,2.08-15.45,12.83-24.66,12.83-24.66,12.97-16.22,9.73-32.43,9.73-32.43-4.86-21.08,1.93-31.49,1.93-31.49,6.26,4.91,20.63,17.77,41.85,46.09,0,0,2.94,4.9,8.82,9.37,2.48,1.88,5.29,3.28,8.19,4.38,3.68,1.41,10.98,5.06,17.5,13.52,2.34,3.03,4.15,6.44,5.64,9.97,2.01,4.75,6.47,13.77,13.36,19.51l12.16,12.16Z" fill="#fff" stroke="#002346" stroke-miterlimit="10"></path>
  <path d="M418.41,183.96c-9.73,3.24-14.59,19.46-14.59,19.46-2.46,10.66-9.48,20.49-15.82,27.61-4.94,5.54-10.76,10.2-17.02,14.19-8.35,5.31-18.39,14.57-22.99,18.98-1.62,1.55-4.33,.43-4.35-1.81-.02-2.99,1.21-6.69,2.21-9.17,.58-1.46,.98-3.01,.85-4.57-.71-8.91,14.97-16.03,14.97-16.03,17.84-11.35,4.86-14.59,4.86-14.59-3.95-1.32,6.02-11.21,9.89-14.86,.21-.19-.03-.52-.28-.38l-8.98,4.99c-2.18,1.21-4.2,2.66-6.2,4.14-3.17,2.34-6.91,3.85-9.93,4.79-4.23,1.31-8.17,3.41-11.67,6.12-6.44,4.98-11.17,8.34-14.2,10.41-2.22,1.51-4.92-1.03-3.59-3.36,5.06-8.86,22.26-23.19,22.26-23.19,3.65-5.48,10.91-13.53,16.55-19.52,4.12-4.37,6.79-9.84,8.07-15.71,1.56-7.16,6.19-11.79,6.19-11.79,5.85-4.38,3.79-17.98,3.34-20.63,1.09,.05,2.12,.52,2.9,1.39l37.54,43.56Z" fill="#fff" stroke="#002346" stroke-miterlimit="10"></path>
  <path d="M686.82,449.36c0,30.75-47.34,53.63-111.94,77.83-148.11,55.48-101.55,93.06-89.63,101.02H107.62c58.5-66.88,175.05-104.56,252.79-124.18,89.03-22.48,172.34-44.83,172.34-56.21,0-14.28-55.99-23.69-127.82-34.95-70.15-10.98-103.24-26.99-103.24-44.37s59.1-29.37,106.6-34.84c43.68-5.03,187.89-14.14,187.89-22.4,0-6.71-76.93-15.01-99.64-17.46-30.4-3.28-48.22-7.34-48.22-14.21,0-1.38,1.12-2.64,2.98-3.72h6.19s-2.06,1.62-2.06,3.13c0,4.83,35.26,7.44,46.99,8.23,35.14,2.47,142.08,13.16,142.08,27.65,0,8.24-20.55,14.32-42.4,18.27-38.78,6.99-142.99,15.82-163.81,18.58-22.97,3.07-55.23,8.43-55.23,14.27,0,5.45,29.79,10.15,62.53,13.82,55.65,6.19,241.22,21.94,241.22,69.54Z" fill="#e6e7e8" stroke="#002346" stroke-miterlimit="10"></path>
  <g id="b">
    <path d="M517.84,32.72c-.74-7.54-5.93-15.03-15.07-15.03s-14.31,7.5-15.06,15.03c-1.15,11.59,6.7,22.16,15.06,31.79,8.39-9.62,16.2-20.15,15.07-31.79Zm-15.07,8.37c-4.56,.02-8.27-3.67-8.29-8.23-.02-4.56,3.67-8.27,8.23-8.29,4.56-.02,8.27,3.67,8.29,8.23h0c.01,4.56-3.67,8.26-8.22,8.27,0,0,0,0,0,0v.02Z" fill="#212f3d" stroke="#002346" stroke-miterlimit="10"></path>
    <path d="M503.45,28.77l1,1.43c.11,.15,.26,.26,.43,.31l1.67,.51c.55,.17,.76,.82,.42,1.28l-1.05,1.4c-.11,.15-.17,.32-.16,.51l.03,1.75c0,.57-.55,.97-1.09,.79l-1.66-.56c-.17-.06-.36-.06-.53,0l-1.65,.56c-.54,.18-1.09-.22-1.09-.79l.02-1.76c0-.18-.06-.35-.16-.5l-1.04-1.4c-.34-.46-.12-1.11,.42-1.28l1.66-.51c.17-.05,.33-.16,.43-.31l1.01-1.43c.33-.47,1.02-.46,1.35,0Z" fill="#212f3d" stroke="#002346" stroke-miterlimit="10"></path>
  </g>
  <rect x="323.05" y="367.74" width="26.97" height="12.68" fill="#f2b3c1" stroke="#002346" stroke-miterlimit="10"></rect>
  <rect x="344.63" y="350.09" width="21.34" height="37.68" rx="10.67" ry="10.67" transform="translate(44.55 -38.23) rotate(6.57)" fill="#f2b3c1" stroke="#002346" stroke-miterlimit="10"></rect>
  <path d="M335.72,332.07s1.27,4.16-1.63,9.96" fill="none" stroke="#2f2e41" stroke-miterlimit="10"></path>
  <path d="M274.07,549.29s.55,8.47-.87,12.59c-.38,1.1-.53,2.25-.55,3.42-.05,2.35-.96,4.47,.99,7.4,0,0,1.82,2.43,1.86,4.34,.02,.97-.71,1.73-1.67,1.78s-2.56-.48-4.41-3.08c-.56-.79-1.04-1.63-1.45-2.5-.77-1.63-3.02-5.7-6.16-4.94-.48,.12-.89,.42-1.24,.78-1.19,1.26-2.73,2.12-4.41,2.48-.84,.18-1.5,.82-1.61,1.67-.47,3.66-2.09,12.88-6.52,13.71-.87,.16-1.62-.64-1.41-1.5,.73-3.06,2.3-10.27,1.62-12.82-.01-.04-.06-.05-.09-.02-.9,1.2-11.82,15.38-20.65,10.88,0,0-1.43-.97-.26-3.11-.69-.22-1.34-.55-1.93-.97-1.03-.75-1.25-2.2-.5-3.23,.38-.52,.95-.85,1.59-.93,3.97-.56,7.76-2.02,11.08-4.26,0,0,13.33-9.42,15.46-14.71,0,0,2.41-5.51,5.22-6.38,.05-.06,5.17,2.21,15.9-.59Z" fill="#f2b3c1" stroke="#002346" stroke-miterlimit="10"></path>
  <path d="M395.51,560.34s-1.79,6.17-.71,9.99c.32,1.03,.51,2.09,.57,3.17,.08,2.34,0,6.11-.97,7.81,0,0-4.22,5.01-1.48,5.64,0,0,2.9,2.59,6.86-4.47,0,0,2.56-6.48,6.41-5.6,.47,.12,.89,.37,1.22,.73,1.52,1.67,3.65,2.65,5.91,2.71,0,0,1.08,13.37,6.22,15.08,1.04,.34,2.05-.6,1.79-1.67-.68-2.86-1.93-8.62-1.7-11.59,.03-.42,.55-.58,.83-.26,2.57,3.03,12.4,13.67,20.33,9.62,0,0,1.57-.19,0-2.55,.71-.22,1.37-.54,1.98-.97,1.03-.75,1.25-2.2,.5-3.23-.38-.52-.95-.85-1.59-.93-3.97-.56-7.76-2.02-11.08-4.26,0,0-13.33-9.41-15.46-14.7,0,0-2.41-5.52-5.22-6.39-4.74,1.06-9.56,1.68-14.41,1.86Z" fill="#f2b3c1" stroke="#002346" stroke-miterlimit="10"></path>
  <path d="M286.8,608.95v5.25s13.31,6.64,19.6-1.17v-6.13l-19.6,2.06Z" fill="#fff" stroke="#002346" stroke-miterlimit="10"></path>
  <polygon points="306.4 588.6 292.64 593.1 286.8 588 286.8 580.97 306.4 580.97 306.4 588.6" fill="#f2b3c1" stroke="#002346" stroke-miterlimit="10"></polygon>
  <path d="M306.4,588.6v18.29c.01,1.09-.45,2.12-1.28,2.83-6.23,5.21-13.91,1.99-16.98,.34-.83-.47-1.51-1.18-1.93-2.04l-4.82-9.39c-.38-.73-.7-1.5-.97-2.28-1.58-4.67,.22-7.15,.22-7.15,1.5-4.04,6.13-1.2,6.13-1.2l4.6,4.01c.77,.67,1.83,.88,2.79,.57l12.22-3.98Z" fill="#4169e1" stroke="#002346" stroke-miterlimit="10"></path>
  <path d="M318,613.75s-2.15,5.29,10.15,18.8l1.45-.45s1.93,21.78,5.32,27.05c0,0,1.93,7.05,12.98,5.85,0,0,19.32,1.61,25.25-4.14,0,0-15.39-8.99-19.55-22.35-.56-1.82-1.23-3.6-1.93-5.37l-4.66-11.45s-11.87-21.01-22.56-17.18c0-.03-8.18,2.14-6.45,9.24Z" fill="#fff" stroke="#002346" stroke-miterlimit="10"></path>
  <path d="M283.41,538.85l-.79,40.67c-.03,1.35,.82,2.57,2.1,3,5.33,1.84,19.41,5.8,27.13-.64,.71-.6,1.12-1.48,1.12-2.41v-31.3s-16.68,1-29.55-9.33Z" fill="#212f3d" stroke="#002346" stroke-miterlimit="10"></path>
  <path d="M415.42,555.47c-6.83,5.39-18.03,5.63-18.03,5.63-3.78,.05-7.22-2.16-8.75-5.62l-8.42-9.97c-7.18-8.13-18.1-15.29-18.1-15.29,6.68-8.14,8.05-12.79,8.23-14.98v-.29c.03-.81-.23-1.6-.74-2.23-1.55-1.79-3.69-2.98-6.03-3.36-3.03-.36-6.1,.32-8.7,1.93-6.88,4.11-12.12-1.67-12.12-1.67-8.12-8.74-22.47-3.75-22.47-3.75-2.68,1.09-5.52,1.75-8.42,1.93-2.13,.13-4.27-.13-6.31-.78-.86-.27-1.68-.65-2.43-1.14-9.04-4.99-16.22,0-16.22,0-4.51,3.87-10.01,6.41-15.88,7.33-2.55,.45-5.14,.67-7.73,.65-4.39-.11-8.7,1.25-12.23,3.86-9.27,7.17-8.04,16.32-7.91,17.06-3.8-13.74,1.32-28.32,1.32-28.32,1.7-4.61,12.43-32.92,17.14-45.34,1.47-3.87,2.37-7.93,2.68-12.06l.77-10.31c2.5-37.44,19.03-41.5,19.03-41.5,9.99-3.74,24.03-14.98,24.03-14.98,6.86-5.29,12.79-4.37,12.79-4.37,9.66-5.92,26.51,0,26.51,0,26.53,2.81,43.06,17.78,43.06,17.78,6.56,5.31,10.29,22.47,10.29,22.47,3.12,11.33,4.96,28.35,5.77,37.22,.28,3.06,.68,6.1,1.36,9.1,2.78,12.11,.67,25.73,.67,25.73-.31,5.67,.13,11.36,1.3,16.92,3.61,10.63,6.58,35.25,7.51,43.48,.22,1.86-.53,3.69-1.98,4.87Z" fill="#4169e1" stroke="#002346" stroke-miterlimit="10"></path>
  <path d="M278.25,547.85c-29.85,11.36-35.06-13.15-35.06-13.15-.13-.75-1.36-9.89,7.91-17.06,3.53-2.61,7.84-3.97,12.23-3.86,2.59,.02,5.18-.2,7.73-.65l5.59,16.42c-1.21,5.32,1.32,13.08,2.53,16.31,.26,.81-.15,1.68-.94,1.99Z" fill="#4169e1" stroke="#002346" stroke-miterlimit="10"></path>
  <path d="M370.37,515.11c-.72,4.83-3.26,8.39-5.27,11.24-.92,1.3-1.91,2.55-2.97,3.75-11.67,18.52-43.06,17.47-43.06,17.47-11.99,2.04-24.31-.69-34.32-7.6-14.96-10.19-21.43-26.22-21.43-26.22,16.34,.33,23.61-7.98,23.61-7.98,8.05-5.04,16.22,0,16.22,0,7.59,4.2,17.16,0,17.16,0,15.03-5.2,22.47,3.75,22.47,3.75,6.19,5.8,12.12,1.67,12.12,1.67,9.49-5.59,14.71,1.41,14.71,1.41,1.33,1.43,.73,2.52,.73,2.52Z" fill="#212f3d" stroke="#002346" stroke-miterlimit="10"></path>
  <path d="M312.96,548.18s13.08,16.42,17.21,37.45l50.87,4.97-4.15-48.9c-4.58-4.27-9.51-8.15-14.74-11.59,0,0-8.97,16.97-43.06,17.46l-6.12,.62Z" fill="#212f3d" stroke="#002346" stroke-miterlimit="10"></path>
  <path d="M425.46,579.73s7.45,8.04,15.29,9.22" fill="none" stroke="#002346" stroke-linecap="round" stroke-linejoin="round"></path>
  <path d="M381.59,595.28c-.1,2.73-1.23,5.32-3.16,7.26-5.92,5.82-12.85,10.51-20.45,13.84-.97,.43-1.93,.83-2.95,1.22-.29-3.04-.94-6.04-1.93-8.94-2.72-8.17-9.24-19.17-24.67-20.21,0,0,4.06-11.3,25.69-13.23,.68-.07,1.36-.09,2.04-.07,.82,0,1.65,.05,2.46,.15,6.5,.81,23.46,4.45,22.97,19.98Z" fill="#212f3d" stroke="#002346" stroke-miterlimit="10"></path>
  <path d="M376.86,656.35c-.38,3.04-3.71,4.47-3.71,4.47-11.71,3.59-26.16-24.36-26.16-24.36l-7.31-20.74c-2.68-7.68-11.08-11.74-18.77-9.05-.52,.18-1.03,.39-1.52,.63l-.48,.25c-.24-10.28,9.55-19.11,9.55-19.11,15.46,1.04,21.94,12.04,24.67,20.21,.99,2.89,1.64,5.89,1.93,8.94,1.01-.39,2-.79,2.95-1.22,2.27,12.39,9.39,27.5,9.39,27.5,1.48,5.29,4.3,7.05,6.17,7.61,2.13,.62,3.51,2.66,3.3,4.87Z" fill="#4169e1" stroke="#002346" stroke-miterlimit="10"></path>
  <path d="M318,613.75s1.49-7.62,8.99-6.52c2.55,.42,4.87,1.72,6.54,3.69,3.57,4.3,6.7,8.95,9.35,13.87l3.45-2.9s-4.41-16.57-17.16-19.56c-2.35-.63-4.85-.38-7.04,.69-2.63,1.34-5.38,4.34-4.13,10.73Z" fill="#fff" stroke="#002346" stroke-miterlimit="10"></path>
  <path d="M364.15,360.67v-2.48c.04-.47-.32-.89-.79-.92-.47-.04-.89,.32-.92,.79,0,.06,0,.12,0,.18,.1,1.29,.04,2.59-.16,3.86-.34,2.03-2.03,3.56-4.09,3.69-.36,0-.71,.06-1.06,.14-3.86,.97-2.21,5.91-2.21,5.91,1.28,4.35,0,4.17,0,4.17-3.8,2.53-11.23-2.9-11.23-2.9-2.93-.66-5.93-.99-8.94-.97-2.11-.02-4.2,.49-6.06,1.49l-5.75,3.16c-6.62,1.48-3.34-10.12-3.34-10.12-2.14,.89-4.51,1.08-6.76,.54-.56-.16-1.11-.39-1.61-.69-.39-.24-.51-.75-.27-1.14,.04-.06,.08-.11,.13-.16,2.36-2.33,2.9-10.26,2.98-15.46,.02-4.82,1.81-9.46,5.02-13.04,4.19-4.67,10.7-6.48,16.69-4.65,15.39-6.88,22.81,7.24,22.81,7.24,1.81,4.9,5.07,5.98,5.07,5.98,4.89-4.35,4.89,4.71,4.89,4.71,.32,9.21-4.4,10.66-4.4,10.66Z" fill="#002346" stroke="#002346" stroke-miterlimit="10"></path>
  <path d="M273.14,417.61s6.55,21.11-9.28,36.16" fill="none" stroke="#002346" stroke-linecap="round" stroke-linejoin="round"></path>
  <path d="M375.55,447.07s-10.63,8.28-7.06,28.81c.22,1.28,.51,2.55,.82,3.81,1.01,4.18,4.38,19.95,1.9,34.04" fill="none" stroke="#002346" stroke-linecap="round" stroke-linejoin="round"></path>
  <path d="M227.25,580.35s7.73-1.89,14.49-6.72" fill="none" stroke="#002346" stroke-linecap="round" stroke-linejoin="round"></path>
  <line x1="329.6" y1="632.1" x2="336.42" y2="628.71" fill="none" stroke="#002346" stroke-linecap="round" stroke-linejoin="round"></line>
  <g>
    <path d="M660.75,208.72l-.19-28.58c.01,.49,.1,.97,.26,1.43,.19,.51,.46,.99,.8,1.43,2.6,3.35,10.12,5.61,22.38,6.71l.18,28.57c-12.22-1.1-19.72-3.34-22.36-6.71-.36-.42-.64-.89-.83-1.39-.17-.47-.25-.96-.24-1.46Z" fill="#4169e1" stroke="#002346" stroke-miterlimit="10"></path>
    <path d="M660.65,203.14c-2.97-3.22-10.79-5.19-22.47-5.94l-.18-28.57c12.24,.77,19.52,2.9,22.13,6.35,.32,.42,.58,.9,.76,1.4,.22,.51,.34,1.06,.36,1.62l-.21,24.97c0,.21-.26,.31-.4,.16Z" fill="#4169e1" stroke="#002346" stroke-miterlimit="10"></path>
    <line x1="637.86" y1="163.99" x2="637.86" y2="389.1" fill="#e6e7e8" stroke="#002346" stroke-linecap="round" stroke-linejoin="round"></line>
    <rect x="628.68" y="387.17" width="18.36" height="8.7" fill="#e6e7e8" stroke="#002346" stroke-miterlimit="10"></rect>
    <rect x="624.81" y="391.52" width="26.09" height="12.56" fill="#fff" stroke="#002346" stroke-miterlimit="10"></rect>
  </g>
  <g>
    <path d="M391.41,190.78l-.14-20.72c0,.35,.07,.7,.19,1.04,.14,.37,.34,.72,.58,1.04,1.89,2.43,7.34,4.07,16.22,4.87l.13,20.71c-8.86-.8-14.3-2.42-16.21-4.87-.26-.3-.46-.64-.6-1.01-.12-.34-.18-.7-.18-1.06Z" fill="#4169e1" stroke="#002346" stroke-miterlimit="10"></path>
    <path d="M391.34,186.74c-2.15-2.33-7.83-3.76-16.29-4.3l-.13-20.71c8.87,.56,14.15,2.1,16.05,4.6,.24,.31,.42,.65,.55,1.02,.16,.37,.25,.77,.26,1.18l-.15,18.1c0,.15-.19,.23-.29,.12Z" fill="#4169e1" stroke="#002346" stroke-miterlimit="10"></path>
    <line x1="374.81" y1="158.36" x2="374.81" y2="321.57" fill="#e6e7e8" stroke="#002346" stroke-linecap="round" stroke-linejoin="round"></line>
    <rect x="368.16" y="320.17" width="13.31" height="6.3" fill="#e6e7e8" stroke="#002346" stroke-miterlimit="10"></rect>
    <rect x="365.36" y="323.32" width="18.91" height="9.11" fill="#fff" stroke="#002346" stroke-miterlimit="10"></rect>
  </g>
  <g>
    <path d="M600.61,191.52l-.1-14.21c0,.24,.05,.48,.13,.71,.1,.25,.23,.49,.4,.71,1.29,1.67,5.03,2.79,11.12,3.34l.09,14.2c-6.08-.55-9.81-1.66-11.11-3.34-.18-.21-.32-.44-.41-.69-.08-.23-.12-.48-.12-.73Z" fill="#4169e1" stroke="#002346" stroke-miterlimit="10"></path>
    <path d="M600.56,188.75c-1.48-1.6-5.37-2.58-11.17-2.95l-.09-14.2c6.09,.38,9.7,1.44,11,3.16,.16,.21,.29,.45,.38,.7,.11,.26,.17,.53,.18,.81l-.1,12.42c0,.1-.13,.16-.2,.08Z" fill="#4169e1" stroke="#002346" stroke-miterlimit="10"></path>
    <line x1="589.22" y1="169.28" x2="589.22" y2="281.21" fill="#e6e7e8" stroke="#002346" stroke-linecap="round" stroke-linejoin="round"></line>
    <rect x="584.66" y="280.24" width="9.13" height="4.32" fill="#e6e7e8" stroke="#002346" stroke-miterlimit="10"></rect>
    <rect x="582.74" y="282.41" width="12.97" height="6.24" fill="#fff" stroke="#002346" stroke-miterlimit="10"></rect>
  </g>
  <g>
    <path d="M477.91,181.86l-.1-14.21c0,.24,.05,.48,.13,.71,.1,.25,.23,.49,.4,.71,1.29,1.67,5.03,2.79,11.12,3.34l.09,14.2c-6.08-.55-9.81-1.66-11.11-3.34-.18-.21-.32-.44-.41-.69-.08-.23-.12-.48-.12-.73Z" fill="#4169e1" stroke="#002346" stroke-miterlimit="10"></path>
    <path d="M477.86,179.08c-1.48-1.6-5.37-2.58-11.17-2.95l-.09-14.2c6.09,.38,9.7,1.44,11,3.16,.16,.21,.29,.45,.38,.7,.11,.26,.17,.53,.18,.81l-.1,12.42c0,.1-.13,.16-.2,.08Z" fill="#4169e1" stroke="#002346" stroke-miterlimit="10"></path>
    <line x1="466.52" y1="159.62" x2="466.52" y2="271.54" fill="#e6e7e8" stroke="#002346" stroke-linecap="round" stroke-linejoin="round"></line>
    <rect x="461.96" y="270.58" width="9.13" height="4.32" fill="#e6e7e8" stroke="#002346" stroke-miterlimit="10"></rect>
    <rect x="460.04" y="272.75" width="12.97" height="6.24" fill="#fff" stroke="#002346" stroke-miterlimit="10"></rect>
  </g>
  <rect x="439.23" y="570.79" width="109.36" height="24.59" fill="#212f3d" stroke="#002346" stroke-miterlimit="10"></rect>
  <circle cx="463.49" cy="583.41" r="7.77" fill="#fff" stroke="#002346" stroke-miterlimit="10"></circle>
  <rect x="535.32" y="595.03" width="45.94" height="24.59" fill="#fff" stroke="#002346" stroke-miterlimit="10"></rect>
  <line x1="543.64" y1="600.34" x2="581.22" y2="600.34" fill="none" stroke="#002346" stroke-linecap="round" stroke-linejoin="round"></line>
  <line x1="543.64" y1="607.46" x2="581.22" y2="607.46" fill="none" stroke="#002346" stroke-linecap="round" stroke-linejoin="round"></line>
  <line x1="543.64" y1="613.28" x2="581.22" y2="613.28" fill="none" stroke="#002346" stroke-linecap="round" stroke-linejoin="round"></line>
  <rect x="548.91" y="619.62" width="45.94" height="24.59" fill="#fff" stroke="#002346" stroke-miterlimit="10"></rect>
  <g>
    <line x1="557.23" y1="632" x2="594.81" y2="632" fill="none" stroke="#002346" stroke-linecap="round" stroke-linejoin="round"></line>
    <line x1="557.23" y1="626" x2="594.81" y2="626" fill="none" stroke="#002346" stroke-linecap="round" stroke-linejoin="round"></line>
    <line x1="557.23" y1="637.82" x2="594.81" y2="637.82" fill="none" stroke="#002346" stroke-linecap="round" stroke-linejoin="round"></line>
  </g>
  <rect x="447.64" y="619.62" width="109.36" height="24.59" fill="#212f3d" stroke="#002346" stroke-miterlimit="10"></rect>
  <circle cx="471.91" cy="632.23" r="7.77" fill="#fff" stroke="#002346" stroke-miterlimit="10"></circle>
  <rect x="434.05" y="595.03" width="109.36" height="24.59" fill="#4169e1" stroke="#002346" stroke-miterlimit="10"></rect>
  <circle cx="458.32" cy="607.64" r="7.77" fill="#fff" stroke="#002346" stroke-miterlimit="10"></circle>
</svg>
